<?xml version="1.0" encoding="UTF-8" standalone="no"?><!DOCTYPE svg PUBLIC "-//W3C//DTD SVG 1.1//EN" "http://www.w3.org/Graphics/SVG/1.1/DTD/svg11.dtd"><svg width="100%" height="100%" viewBox="0 0 662 249" version="1.1" xmlns="http://www.w3.org/2000/svg" xmlns:xlink="http://www.w3.org/1999/xlink" xml:space="preserve" xmlns:serif="http://www.serif.com/" style="fill-rule:evenodd;clip-rule:evenodd;stroke-linejoin:round;stroke-miterlimit:2;"><rect id="Artboard1" x="0" y="0" width="661.712" height="248.04" style="fill:none;"/><path d="M163.115,19.959l78.698,-0l-17.091,41.332l-80.62,0c0,0 18.627,-40.609 19.013,-41.332Z" style="fill:#4ac3cc;"/><path d="M111.52,19.959l0.136,-0c-0.24,0.723 -0.475,1.468 -0.705,2.229l0.569,-2.229Z"/><path d="M137.508,61.291l-16.448,39.816l74.898,0l-16.024,38.471l-74.902,-0l-18.061,43.528l89.807,0l-17.091,41.333l-137.07,-0l84.718,-204.48l49.049,-0l-1.018,2.229c-2.214,4.398 -4.342,9.305 -6.05,13.247l-3.598,7.879c-2.452,5.072 -8.824,18.474 -9.325,19.735c0.501,-1.261 6.873,-14.663 9.325,-19.735l-8.21,17.977Z" style="fill:#437bac;"/><path d="M110.951,22.188l-3.379,13.247c0.914,-3.942 2.052,-8.849 3.379,-13.247Z"/><path d="M105.563,43.314l2.009,-7.879c-0.613,2.645 -1.124,4.855 -1.524,6.185c-0.092,0.307 -0.261,0.898 -0.485,1.694Z"/><path d="M247.564,148.947l-17.342,-75.659l46.823,0l6.676,42.494l0.185,5.62l4.828,-5.62l43.22,-42.494l46.503,0l-81.209,75.659l18.677,75.492l-47.11,-0l-7.915,-42.404l-0.208,-5.337l-4.688,5.337l-43.403,42.404l-47.111,-0l82.074,-75.492Z" style="fill:#437bac;fill-rule:nonzero;"/><path d="M374.674,227.319c-12.888,-0 -23.542,-2.696 -31.963,-8.089c-8.422,-5.392 -14.233,-12.922 -17.435,-22.59c-3.201,-9.667 -3.534,-20.792 -0.997,-33.374c2.576,-12.774 7.484,-24.749 14.723,-35.926c7.24,-11.176 16.15,-21.016 26.731,-29.52c10.581,-8.503 22.254,-15.184 35.019,-20.041c12.765,-4.857 25.947,-7.285 39.546,-7.285c11.553,-0 21.157,1.672 28.812,5.015c7.656,3.344 13.117,8.228 16.384,14.654c3.268,6.426 3.978,14.219 2.131,23.378c-3.305,16.389 -13.346,28.824 -30.123,37.305c-16.778,8.481 -40.035,12.721 -69.771,12.721c-5.862,0 -12.157,-0.144 -18.887,-0.432c-6.729,-0.288 -13.687,-0.816 -20.873,-1.584l11.551,-28.053c5.905,0.519 11.612,0.937 17.122,1.254c5.51,0.316 11.127,0.474 16.851,0.474c11.205,0 20.246,-0.638 27.121,-1.914c6.875,-1.277 12.012,-3.242 15.411,-5.895c3.398,-2.654 5.482,-5.884 6.249,-9.691c0.624,-3.096 0.35,-5.672 -0.822,-7.727c-1.173,-2.055 -3.06,-3.647 -5.661,-4.776c-2.601,-1.13 -5.794,-1.695 -9.577,-1.695c-6.213,0 -12.353,1.644 -18.42,4.93c-6.067,3.287 -11.66,7.776 -16.778,13.469c-5.118,5.692 -9.544,12.263 -13.276,19.712c-3.733,7.449 -6.438,15.334 -8.116,23.656c-1.205,5.976 -1.338,11.119 -0.4,15.429c0.939,4.309 3.114,7.613 6.525,9.911c3.411,2.298 8.121,3.447 14.13,3.447c6.933,-0 13.662,-1.613 20.186,-4.838c6.524,-3.225 12.159,-7.728 16.903,-13.509l33.981,11.534c-6.867,7.839 -15.093,14.774 -24.679,20.806c-9.586,6.031 -19.694,10.746 -30.323,14.145c-10.629,3.399 -21.054,5.099 -31.275,5.099Z" style="fill:#437bac;fill-rule:nonzero;"/><path d="M524.091,227.319c-14.028,-0 -25.162,-2.914 -33.401,-8.741c-8.239,-5.828 -13.721,-13.575 -16.447,-23.243c-2.727,-9.667 -2.936,-20.222 -0.629,-31.664c2.384,-11.826 7.001,-23.293 13.848,-34.4c6.848,-11.108 15.413,-21.083 25.695,-29.925c10.282,-8.843 21.839,-15.862 34.672,-21.058c12.834,-5.196 26.428,-7.794 40.783,-7.794c16.815,-0 29.418,3.685 37.81,11.054c8.391,7.37 13.038,16.961 13.941,28.775l-50.51,13.671c-0.674,-4.722 -2.5,-8.325 -5.478,-10.809c-2.977,-2.484 -6.98,-3.726 -12.008,-3.726c-5.103,0 -10.281,1.22 -15.534,3.659c-5.253,2.439 -10.207,5.863 -14.863,10.273c-4.655,4.41 -8.688,9.597 -12.099,15.561c-3.411,5.964 -5.826,12.47 -7.247,19.517c-1.196,5.931 -1.286,11.138 -0.27,15.622c1.016,4.483 3.024,7.982 6.024,10.496c3,2.514 6.764,3.771 11.291,3.771c3.402,-0 6.893,-0.616 10.472,-1.847c3.58,-1.232 7.041,-2.98 10.384,-5.245c3.343,-2.265 6.32,-4.832 8.933,-7.7l39.286,13.586c-6.945,7.839 -14.893,14.759 -23.845,20.761c-8.951,6.001 -18.565,10.736 -28.842,14.204c-10.277,3.468 -20.932,5.202 -31.966,5.202Z" style="fill:#437bac;fill-rule:nonzero;"/></svg>